<mxfile host="Electron" modified="2023-10-20T13:17:13.263Z" agent="Mozilla/5.0 (Macintosh; Intel Mac OS X 10_15_7) AppleWebKit/537.36 (KHTML, like Gecko) draw.io/21.6.8 Chrome/114.0.5735.289 Electron/25.5.0 Safari/537.36" etag="OrZVHlL_pbqdSqdezHK8" version="21.6.8" type="device">
  <diagram name="Page-1" id="mYEsLJ8b5aAbPpGEZzWm">
    <mxGraphModel dx="954" dy="623" grid="1" gridSize="10" guides="1" tooltips="1" connect="1" arrows="1" fold="1" page="1" pageScale="1" pageWidth="10" pageHeight="160" math="0" shadow="0">
      <root>
        <mxCell id="0" />
        <mxCell id="1" parent="0" />
        <mxCell id="03UC8rugmdKANibT0LIX-96" value="" style="rounded=0;whiteSpace=wrap;html=1;fillColor=#d5e8d4;strokeColor=#82b366;" parent="1" vertex="1">
          <mxGeometry x="265" y="180" width="250" height="140" as="geometry" />
        </mxCell>
        <mxCell id="03UC8rugmdKANibT0LIX-52" value="" style="rounded=0;whiteSpace=wrap;html=1;fillColor=#f8cecc;strokeColor=#b85450;" parent="1" vertex="1">
          <mxGeometry width="250" height="320" as="geometry" />
        </mxCell>
        <mxCell id="03UC8rugmdKANibT0LIX-13" style="edgeStyle=orthogonalEdgeStyle;rounded=0;orthogonalLoop=1;jettySize=auto;html=1;entryX=0.5;entryY=0;entryDx=0;entryDy=0;entryPerimeter=0;" parent="1" edge="1">
          <mxGeometry relative="1" as="geometry">
            <mxPoint x="125" y="105" as="sourcePoint" />
            <mxPoint x="75" y="220" as="targetPoint" />
            <Array as="points">
              <mxPoint x="125" y="120" />
              <mxPoint x="75" y="120" />
            </Array>
          </mxGeometry>
        </mxCell>
        <mxCell id="03UC8rugmdKANibT0LIX-101" style="edgeStyle=orthogonalEdgeStyle;rounded=0;orthogonalLoop=1;jettySize=auto;html=1;entryX=0.5;entryY=1;entryDx=0;entryDy=0;" parent="1" source="LDcn7PkU3R0HyOPLbMsQ-92" target="03UC8rugmdKANibT0LIX-97" edge="1">
          <mxGeometry relative="1" as="geometry" />
        </mxCell>
        <mxCell id="LDcn7PkU3R0HyOPLbMsQ-92" value="TVL / TVR" style="rounded=0;whiteSpace=wrap;html=1;" parent="1" vertex="1">
          <mxGeometry x="330" y="250" width="120" height="30" as="geometry" />
        </mxCell>
        <mxCell id="03UC8rugmdKANibT0LIX-69" style="edgeStyle=orthogonalEdgeStyle;rounded=0;orthogonalLoop=1;jettySize=auto;html=1;entryX=0.5;entryY=0;entryDx=0;entryDy=0;" parent="1" source="03UC8rugmdKANibT0LIX-19" target="03UC8rugmdKANibT0LIX-68" edge="1">
          <mxGeometry relative="1" as="geometry">
            <Array as="points">
              <mxPoint x="125" y="120" />
              <mxPoint x="177" y="120" />
            </Array>
          </mxGeometry>
        </mxCell>
        <mxCell id="03UC8rugmdKANibT0LIX-10" value="TVL Filter" style="rounded=0;whiteSpace=wrap;html=1;" parent="1" vertex="1">
          <mxGeometry x="120.5" y="130" width="100" height="30" as="geometry" />
        </mxCell>
        <mxCell id="03UC8rugmdKANibT0LIX-11" value="Data aggregation" style="rounded=0;whiteSpace=wrap;html=1;" parent="1" vertex="1">
          <mxGeometry x="25" y="170" width="200" height="30" as="geometry" />
        </mxCell>
        <mxCell id="03UC8rugmdKANibT0LIX-19" value="Tokens breakdown data&amp;nbsp;" style="shape=cylinder3;whiteSpace=wrap;html=1;boundedLbl=1;backgroundOutline=1;size=9;" parent="1" vertex="1">
          <mxGeometry x="95" y="50" width="60" height="60" as="geometry" />
        </mxCell>
        <mxCell id="03UC8rugmdKANibT0LIX-100" style="edgeStyle=orthogonalEdgeStyle;rounded=0;orthogonalLoop=1;jettySize=auto;html=1;entryX=0.75;entryY=1;entryDx=0;entryDy=0;" parent="1" source="03UC8rugmdKANibT0LIX-20" target="LDcn7PkU3R0HyOPLbMsQ-92" edge="1">
          <mxGeometry relative="1" as="geometry">
            <Array as="points">
              <mxPoint x="110" y="300" />
              <mxPoint x="420" y="300" />
            </Array>
          </mxGeometry>
        </mxCell>
        <mxCell id="03UC8rugmdKANibT0LIX-20" value="TVL" style="shape=datastore;whiteSpace=wrap;html=1;" parent="1" vertex="1">
          <mxGeometry x="25" y="220" width="95.5" height="40" as="geometry" />
        </mxCell>
        <mxCell id="03UC8rugmdKANibT0LIX-34" value="MULTIPLIER CONSTRUCTION" style="text;strokeColor=none;fillColor=none;html=1;fontSize=12;fontStyle=1;verticalAlign=middle;align=center;fontFamily=Helvetica;" parent="1" vertex="1">
          <mxGeometry x="300" y="180" width="180" height="20" as="geometry" />
        </mxCell>
        <mxCell id="03UC8rugmdKANibT0LIX-99" style="edgeStyle=orthogonalEdgeStyle;rounded=0;orthogonalLoop=1;jettySize=auto;html=1;entryX=0.25;entryY=1;entryDx=0;entryDy=0;" parent="1" target="LDcn7PkU3R0HyOPLbMsQ-92" edge="1">
          <mxGeometry relative="1" as="geometry">
            <mxPoint x="150" y="260" as="sourcePoint" />
            <Array as="points">
              <mxPoint x="150" y="290" />
              <mxPoint x="360" y="290" />
            </Array>
          </mxGeometry>
        </mxCell>
        <mxCell id="03UC8rugmdKANibT0LIX-68" value="TVR" style="shape=datastore;whiteSpace=wrap;html=1;" parent="1" vertex="1">
          <mxGeometry x="129.5" y="220" width="95.5" height="40" as="geometry" />
        </mxCell>
        <mxCell id="03UC8rugmdKANibT0LIX-80" value="TVR MEASUREMENT" style="text;strokeColor=none;fillColor=none;html=1;fontSize=12;fontStyle=1;verticalAlign=middle;align=center;fontFamily=Helvetica;" parent="1" vertex="1">
          <mxGeometry x="60" y="20" width="130" height="20" as="geometry" />
        </mxCell>
        <mxCell id="03UC8rugmdKANibT0LIX-88" style="edgeStyle=orthogonalEdgeStyle;rounded=0;orthogonalLoop=1;jettySize=auto;html=1;entryX=0.25;entryY=0;entryDx=0;entryDy=0;" parent="1" source="03UC8rugmdKANibT0LIX-84" target="03UC8rugmdKANibT0LIX-87" edge="1">
          <mxGeometry relative="1" as="geometry" />
        </mxCell>
        <mxCell id="03UC8rugmdKANibT0LIX-89" style="edgeStyle=orthogonalEdgeStyle;rounded=0;orthogonalLoop=1;jettySize=auto;html=1;entryX=0.5;entryY=0;entryDx=0;entryDy=0;" parent="1" source="03UC8rugmdKANibT0LIX-85" target="03UC8rugmdKANibT0LIX-87" edge="1">
          <mxGeometry relative="1" as="geometry" />
        </mxCell>
        <mxCell id="03UC8rugmdKANibT0LIX-90" style="edgeStyle=orthogonalEdgeStyle;rounded=0;orthogonalLoop=1;jettySize=auto;html=1;entryX=0.75;entryY=0;entryDx=0;entryDy=0;" parent="1" source="03UC8rugmdKANibT0LIX-86" target="03UC8rugmdKANibT0LIX-87" edge="1">
          <mxGeometry relative="1" as="geometry" />
        </mxCell>
        <mxCell id="03UC8rugmdKANibT0LIX-97" value="DeFi money&lt;br style=&quot;border-color: var(--border-color);&quot;&gt;multiplier" style="shape=datastore;whiteSpace=wrap;html=1;" parent="1" vertex="1">
          <mxGeometry x="342.25" y="200" width="95.5" height="40" as="geometry" />
        </mxCell>
        <mxCell id="03UC8rugmdKANibT0LIX-104" value="" style="rounded=0;whiteSpace=wrap;html=1;fillColor=#dae8fc;strokeColor=#6c8ebf;" parent="1" vertex="1">
          <mxGeometry x="265" width="250" height="160" as="geometry" />
        </mxCell>
        <mxCell id="03UC8rugmdKANibT0LIX-105" style="edgeStyle=orthogonalEdgeStyle;rounded=0;orthogonalLoop=1;jettySize=auto;html=1;entryX=0.25;entryY=0;entryDx=0;entryDy=0;" parent="1" source="03UC8rugmdKANibT0LIX-84" target="03UC8rugmdKANibT0LIX-87" edge="1">
          <mxGeometry relative="1" as="geometry" />
        </mxCell>
        <mxCell id="03UC8rugmdKANibT0LIX-84" value="MakerDAO&lt;br&gt;vaults&lt;br&gt;data" style="shape=cylinder3;whiteSpace=wrap;html=1;boundedLbl=1;backgroundOutline=1;size=9;" parent="1" vertex="1">
          <mxGeometry x="275" y="25" width="60" height="60" as="geometry" />
        </mxCell>
        <mxCell id="03UC8rugmdKANibT0LIX-106" style="edgeStyle=orthogonalEdgeStyle;rounded=0;orthogonalLoop=1;jettySize=auto;html=1;entryX=0.5;entryY=0;entryDx=0;entryDy=0;" parent="1" source="03UC8rugmdKANibT0LIX-85" target="03UC8rugmdKANibT0LIX-87" edge="1">
          <mxGeometry relative="1" as="geometry" />
        </mxCell>
        <mxCell id="03UC8rugmdKANibT0LIX-85" value="ETH&lt;br&gt;price" style="shape=cylinder3;whiteSpace=wrap;html=1;boundedLbl=1;backgroundOutline=1;size=9;" parent="1" vertex="1">
          <mxGeometry x="362" y="25" width="60" height="60" as="geometry" />
        </mxCell>
        <mxCell id="03UC8rugmdKANibT0LIX-107" style="edgeStyle=orthogonalEdgeStyle;rounded=0;orthogonalLoop=1;jettySize=auto;html=1;entryX=0.75;entryY=0;entryDx=0;entryDy=0;" parent="1" source="03UC8rugmdKANibT0LIX-86" target="03UC8rugmdKANibT0LIX-87" edge="1">
          <mxGeometry relative="1" as="geometry" />
        </mxCell>
        <mxCell id="03UC8rugmdKANibT0LIX-86" value="Lido&lt;br&gt;pools&lt;br&gt;data" style="shape=cylinder3;whiteSpace=wrap;html=1;boundedLbl=1;backgroundOutline=1;size=9;" parent="1" vertex="1">
          <mxGeometry x="445" y="25" width="60" height="60" as="geometry" />
        </mxCell>
        <mxCell id="03UC8rugmdKANibT0LIX-87" value="Sensitivity Test" style="rounded=0;whiteSpace=wrap;html=1;" parent="1" vertex="1">
          <mxGeometry x="332" y="125" width="120" height="30" as="geometry" />
        </mxCell>
        <mxCell id="03UC8rugmdKANibT0LIX-83" value="RISK ANALYSIS" style="text;strokeColor=none;fillColor=none;html=1;fontSize=12;fontStyle=1;verticalAlign=middle;align=center;fontFamily=Helvetica;" parent="1" vertex="1">
          <mxGeometry x="339" width="102" height="20" as="geometry" />
        </mxCell>
        <mxCell id="03UC8rugmdKANibT0LIX-109" style="edgeStyle=orthogonalEdgeStyle;rounded=0;orthogonalLoop=1;jettySize=auto;html=1;exitX=0.85;exitY=0.95;exitDx=0;exitDy=0;exitPerimeter=0;entryX=0;entryY=0.5;entryDx=0;entryDy=0;" parent="1" source="03UC8rugmdKANibT0LIX-68" target="03UC8rugmdKANibT0LIX-87" edge="1">
          <mxGeometry relative="1" as="geometry">
            <Array as="points">
              <mxPoint x="211" y="280" />
              <mxPoint x="288" y="280" />
              <mxPoint x="288" y="140" />
            </Array>
          </mxGeometry>
        </mxCell>
        <mxCell id="03UC8rugmdKANibT0LIX-110" style="edgeStyle=orthogonalEdgeStyle;rounded=0;orthogonalLoop=1;jettySize=auto;html=1;entryX=1;entryY=0.5;entryDx=0;entryDy=0;" parent="1" source="03UC8rugmdKANibT0LIX-20" target="03UC8rugmdKANibT0LIX-87" edge="1">
          <mxGeometry relative="1" as="geometry">
            <Array as="points">
              <mxPoint x="40" y="310" />
              <mxPoint x="498" y="310" />
              <mxPoint x="498" y="140" />
            </Array>
          </mxGeometry>
        </mxCell>
      </root>
    </mxGraphModel>
  </diagram>
</mxfile>
